bicep_curl
version=1
nRows=272
nColumns=3
inDegrees=yes

# SIMM Motion File Header:
name bicep_curl
datacolumns 3
datarows 272
otherdata 1
range 0.0000 0.2710
endheader
time	/jointset/r_shoulder/r_shoulder_elev/value	/jointset/r_elbow/r_elbow_flex/value
0.0000	0.0000	30.0000
0.0010	0.0000	30.0000
0.0020	0.0000	30.0000
0.0030	0.0000	30.0000
0.0040	0.0000	30.0000
0.0050	0.0000	30.0000
0.0060	0.0000	30.0000
0.0070	0.0000	30.0000
0.0080	0.0000	30.0000
0.0090	0.0000	30.0000
0.0100	0.0000	30.0000
0.0110	0.0000	30.0000
0.0120	0.0000	30.0000
0.0130	0.0000	30.0000
0.0140	0.0000	30.0000
0.0150	0.0000	30.0000
0.0160	0.0000	30.0000
0.0170	0.0000	30.0000
0.0180	0.0000	30.0000
0.0190	0.0000	30.0000
0.0200	0.0000	30.0000
0.0210	0.0000	30.0000
0.0220	0.0000	30.0000
0.0230	0.0000	30.0000
0.0240	0.0000	30.0000
0.0250	0.0000	30.0000
0.0260	0.0000	30.0000
0.0270	0.0000	30.0000
0.0280	0.0000	30.0000
0.0290	0.0000	30.0000
0.0300	0.0000	30.0000
0.0310	0.0000	30.0000
0.0320	0.0000	30.0000
0.0330	0.0000	30.0000
0.0340	0.0000	30.0000
0.0350	0.0000	30.0000
0.0360	0.0000	30.0000
0.0370	0.0000	30.0000
0.0380	0.0000	30.0000
0.0390	0.0000	30.0000
0.0400	0.0000	30.0000
0.0410	0.0000	30.0000
0.0420	0.0000	30.0000
0.0430	0.0000	30.0000
0.0440	0.0000	30.0000
0.0450	0.0000	30.0000
0.0460	0.0000	30.0000
0.0470	0.0000	30.0000
0.0480	0.0000	30.0000
0.0490	0.0000	30.0000
0.0500	0.0000	30.0000
0.0510	0.0000	30.0000
0.0520	0.0000	30.0000
0.0530	0.0000	30.0000
0.0540	0.0000	30.0000
0.0550	0.0000	30.0000
0.0560	0.0000	30.0000
0.0570	0.0000	30.0000
0.0580	0.0000	30.0000
0.0590	0.0000	30.0000
0.0600	0.0000	30.0000
0.0610	0.0000	30.0000
0.0620	0.0000	30.0000
0.0630	0.0000	30.0000
0.0640	0.0000	30.0000
0.0650	0.0000	30.0000
0.0660	0.0000	30.0000
0.0670	0.0000	30.0000
0.0680	0.0000	30.0000
0.0690	0.0000	30.0000
0.0700	0.0000	30.0000
0.0710	0.0000	30.0000
0.0720	0.0000	30.0000
0.0730	0.0000	30.0000
0.0740	0.0000	30.0000
0.0750	0.0000	30.0000
0.0760	0.0000	30.0000
0.0770	0.0000	30.0000
0.0780	0.0000	30.0000
0.0790	0.0000	30.0000
0.0800	0.0000	30.0000
0.0810	0.0000	30.0026
0.0820	0.0000	30.0041
0.0830	0.0000	30.0046
0.0840	0.0000	30.0041
0.0850	0.0000	30.0027
0.0860	0.0000	30.0003
0.0870	0.0000	29.9970
0.0880	0.0000	29.9928
0.0890	0.0000	29.9877
0.0900	0.0000	29.9817
0.0910	0.0000	29.9749
0.0920	0.0000	29.9673
0.0930	0.0000	29.9589
0.0940	0.0000	29.9498
0.0950	0.0000	29.9399
0.0960	0.0000	29.9292
0.0970	0.0000	29.9179
0.0980	0.0000	29.9059
0.0990	0.0000	29.8932
0.1000	0.0000	29.8799
0.1010	0.0000	29.8659
0.1020	0.0000	29.8514
0.1030	0.0000	29.8363
0.1040	0.0000	29.8207
0.1050	0.0000	29.8045
0.1060	0.0000	29.7878
0.1070	0.0000	29.7706
0.1080	0.0000	29.7530
0.1090	0.0000	29.7350
0.1100	0.0000	29.7165
0.1110	0.0000	29.6976
0.1120	0.0000	29.6784
0.1130	0.0000	29.6588
0.1140	0.0000	29.6389
0.1150	0.0000	29.6186
0.1160	0.0000	29.5981
0.1170	0.0000	29.5774
0.1180	0.0000	29.5563
0.1190	0.0000	29.5351
0.1200	0.0000	29.5111
0.1210	0.0000	29.4880
0.1220	0.0000	29.4657
0.1230	0.0000	29.4443
0.1240	0.0000	29.4238
0.1250	0.0000	29.4041
0.1260	0.0000	29.3853
0.1270	0.0000	29.3673
0.1280	0.0000	29.3502
0.1290	0.0000	29.3340
0.1300	0.0000	29.3186
0.1310	0.0000	29.3041
0.1320	0.0000	29.2904
0.1330	0.0000	29.2777
0.1340	0.0000	29.2657
0.1350	0.0000	29.2547
0.1360	0.0000	29.2445
0.1370	0.0000	29.2351
0.1380	0.0000	29.2266
0.1390	0.0000	29.2190
0.1400	0.0000	29.2122
0.1410	0.0000	29.2063
0.1420	0.0000	29.2013
0.1430	0.0000	29.1971
0.1440	0.0000	29.1938
0.1450	0.0000	29.1914
0.1460	0.0000	29.1898
0.1470	0.0000	29.1890
0.1480	0.0000	29.1892
0.1490	0.0000	29.1902
0.1500	0.0000	29.1920
0.1510	0.0000	29.1947
0.1520	0.0000	29.1983
0.1530	0.0000	29.2027
0.1540	0.0000	29.2080
0.1550	0.0000	29.2142
0.1560	0.0000	29.2212
0.1570	0.0000	29.2291
0.1580	0.0000	29.2379
0.1590	0.0000	29.2475
0.1600	0.0000	29.2579
0.1610	0.0000	29.2693
0.1620	0.0000	29.2814
0.1630	0.0000	29.2945
0.1640	0.0000	29.3084
0.1650	0.0000	29.3232
0.1660	0.0000	29.3388
0.1670	0.0000	29.3553
0.1680	0.0000	29.3727
0.1690	0.0000	29.3909
0.1700	0.0000	29.4100
0.1710	0.0000	29.4299
0.1720	0.0000	29.4507
0.1730	0.0000	29.4724
0.1740	0.0000	29.4949
0.1750	0.0000	29.5183
0.1760	0.0000	29.5426
0.1770	0.0000	29.5677
0.1780	0.0000	29.5936
0.1790	0.0000	29.6205
0.1800	0.0000	29.6482
0.1810	0.0000	29.6767
0.1820	0.0000	29.7061
0.1830	0.0000	29.7364
0.1840	0.0000	29.7676
0.1850	0.0000	29.7996
0.1860	0.0000	29.8324
0.1870	0.0000	29.8662
0.1880	0.0000	29.9007
0.1890	0.0000	29.9362
0.1900	0.0000	29.9725
0.1910	0.0000	30.0097
0.1920	0.0000	30.0477
0.1930	0.0000	30.0866
0.1940	0.0000	30.1263
0.1950	0.0000	30.1670
0.1960	0.0000	30.2084
0.1970	0.0000	30.2508
0.1980	0.0000	30.2940
0.1990	0.0000	30.3380
0.2000	0.0000	30.3830
0.2010	0.0000	30.4287
0.2020	0.0000	30.4754
0.2030	0.0000	30.5229
0.2040	0.0000	30.5713
0.2050	0.0000	30.6205
0.2060	0.0000	30.6706
0.2070	0.0000	30.7215
0.2080	0.0000	30.7734
0.2090	0.0000	30.8260
0.2100	0.0000	30.8796
0.2110	0.0000	30.9340
0.2120	0.0000	30.9892
0.2130	0.0000	31.0453
0.2140	0.0000	31.1023
0.2150	0.0000	31.1602
0.2160	0.0000	31.2189
0.2170	0.0000	31.2784
0.2180	0.0000	31.3389
0.2190	0.0000	31.4002
0.2200	0.0000	31.4623
0.2210	0.0000	31.5253
0.2220	0.0000	31.5892
0.2230	0.0000	31.6539
0.2240	0.0000	31.7195
0.2250	0.0000	31.7860
0.2260	0.0000	31.8533
0.2270	0.0000	31.9215
0.2280	0.0000	31.9905
0.2290	0.0000	32.0604
0.2300	0.0000	32.1312
0.2310	0.0000	32.2028
0.2320	0.0000	32.2753
0.2330	0.0000	32.3487
0.2340	0.0000	32.4229
0.2350	0.0000	32.4979
0.2360	0.0000	32.5739
0.2370	0.0000	32.6507
0.2380	0.0000	32.7283
0.2390	0.0000	32.8068
0.2400	0.0000	32.8862
0.2410	0.0000	32.9665
0.2420	0.0000	33.0476
0.2430	0.0000	33.1295
0.2440	0.0000	33.2124
0.2450	0.0000	33.2960
0.2460	0.0000	33.3806
0.2470	0.0000	33.4660
0.2480	0.0000	33.5523
0.2490	0.0000	33.6394
0.2500	0.0000	33.7274
0.2510	0.0000	33.8162
0.2520	0.0000	33.9060
0.2530	0.0000	33.9965
0.2540	0.0000	34.0880
0.2550	0.0000	34.1803
0.2560	0.0000	34.2734
0.2570	0.0000	34.3675
0.2580	0.0000	34.4623
0.2590	0.0000	34.5581
0.2600	0.0000	34.6547
0.2610	0.0000	34.7522
0.2620	0.0000	34.8505
0.2630	0.0000	34.9497
0.2640	0.0000	35.0497
0.2650	0.0000	35.1507
0.2660	0.0000	35.2524
0.2670	0.0000	35.3551
0.2680	0.0000	35.4586
0.2690	0.0000	35.5629
0.2700	0.0000	35.6681
0.2710	0.0000	35.7742
